<?xml version="1.0" encoding="utf-8"?>
<!-- Generator: Adobe Illustrator 21.1.0, SVG Export Plug-In . SVG Version: 6.00 Build 0)  -->
<svg version="1.1" id="Layer_1" xmlns="http://www.w3.org/2000/svg" xmlns:xlink="http://www.w3.org/1999/xlink" x="0px" y="0px"
	 viewBox="0 0 119 24" style="enable-background:new 0 0 119 24;" xml:space="preserve">
<style type="text/css">
	.st0{fill:#0087CD;}
	.st1{fill:none;}
</style>
<g>
	<path class="st0" d="M56.5,10.2h0.9V9.3c0-0.6,0.5-1.2,1.2-1.2l0,0c0.6,0,1.2,0.5,1.2,1.2v0.9h1.6c0.5,0,0.9,0.4,0.9,0.9l0,0
		c0,0.5-0.4,0.9-0.9,0.9h-1.7v3.4c0,0.8,0.3,1.1,0.9,1.1c0.3,0,0.6-0.1,0.7-0.2c0.3-0.2,0.7-0.1,0.8,0.2c0.1,0.1,0.1,0.2,0.1,0.4
		c0,0.8-0.9,1.4-2.2,1.4c-1.8,0-2.7-0.9-2.7-2.7V12h-0.9c-0.5,0-0.9-0.4-0.9-0.9l0,0C55.7,10.6,56.1,10.2,56.5,10.2z"/>
	<path class="st0" d="M68.1,10.1c1.1,0,1.5,1,1,2c-1.7,0.1-3.1,0.6-3.1,2.3v2.7c0,0.7-0.5,1.2-1.2,1.2l0,0c-0.7,0-1.2-0.5-1.2-1.2
		v-6.6c0-0.1,0.4-0.3,0.9-0.3c0.7,0,1.5,0.3,1.5,1.8v0.2C66.3,11,66.9,10.1,68.1,10.1"/>
	<path class="st0" d="M73.6,18.3c-2.2,0-3.1-1.4-3.1-3.3v-3.7c0-0.7,0.5-1.2,1.2-1.2l0,0c0.7,0,1.2,0.5,1.2,1.2v3.5
		c0,0.9,0.7,1.7,1.7,1.7l0,0c0.9,0,1.7-0.7,1.7-1.7v-3.5c0-0.7,0.5-1.2,1.2-1.2l0,0c0.7,0,1.2,0.5,1.2,1.2V18c0,0.1-0.4,0.3-0.9,0.3
		h-0.2c-0.7,0-1.3-0.6-1.3-1.3l0,0C75.8,17.8,74.9,18.3,73.6,18.3"/>
	<path class="st0" d="M92.6,18.3c-2.2,0-3.1-1.4-3.1-3.3v-3.7c0-0.7,0.5-1.2,1.2-1.2l0,0c0.7,0,1.2,0.5,1.2,1.2v3.5
		c0,0.9,0.7,1.7,1.7,1.7l0,0c0.9,0,1.7-0.7,1.7-1.7v-3.5c0-0.7,0.5-1.2,1.2-1.2l0,0c0.7,0,1.2,0.5,1.2,1.2V18c0,0.1-0.4,0.3-0.9,0.3
		h-0.2c-0.7,0-1.3-0.6-1.3-1.3l0,0C94.7,17.8,93.9,18.3,92.6,18.3"/>
	<path class="st0" d="M103.6,10.1c1.1,0,1.5,1,1,2c-1.7,0.1-3.1,0.6-3.1,2.3v2.7c0,0.7-0.5,1.2-1.2,1.2l0,0c-0.7,0-1.2-0.5-1.2-1.2
		v-6.6c0-0.1,0.4-0.3,0.9-0.3c0.7,0,1.5,0.3,1.5,1.8v0.2C101.8,11,102.4,10.1,103.6,10.1"/>
	<path class="st0" d="M109.9,16.7c1.3,0,1.9-0.5,2.3-1.1c0-0.1,1.1,0.1,1.1,1c0,0.9-1.3,1.8-3.5,1.8c-2.7,0-4.5-1.6-4.5-4.1
		c0-2.4,1.8-4.2,4.3-4.2c2.5,0,4.1,1.7,4.1,3.9l0,0c0,0.5-0.3,0.8-0.8,0.8h-5.5C107.6,16,108.5,16.7,109.9,16.7 M111.5,13.5
		c-0.1-1.1-0.8-1.8-1.9-1.8c-1.1,0-1.9,0.7-2.1,1.8H111.5z"/>
	<g>
		<polygon class="st0" points="113.9,10.5 113.3,10.5 113.3,10.2 114.8,10.2 114.8,10.5 114.3,10.5 114.3,11.9 113.9,11.9 		"/>
		<polygon class="st0" points="115,10.2 115.5,10.2 115.9,11.4 115.9,11.4 116.3,10.2 116.9,10.2 116.9,11.9 116.5,11.9 116.5,10.7 
			116.5,10.7 116.1,11.9 115.8,11.9 115.3,10.7 115.3,10.7 115.3,11.9 115,11.9 		"/>
	</g>
	<path class="st0" d="M48.5,11.7L49,9.9h4.7c0.6-2.6,0.1-5.1-1.5-6.6C48.8,0.1,41.7,1.2,36.5,6c-0.8,0.7-1.5,1.5-2.2,2.4h2.9
		l-0.7,1.8h-3.4c-0.3,0.6-0.6,1.1-0.9,1.7h4.1l-0.6,1.8h-4c-0.7,2.8-0.2,5.4,1.5,7c3.3,3.2,10.4,2.1,15.6-2.7
		c0.9-0.9,1.7-1.7,2.4-2.7h-3.7l0.6-1.8h4.3c0.3-0.6,0.6-1.1,0.9-1.7L48.5,11.7L48.5,11.7z M47.5,8.3c-0.3,0-0.5,0.1-0.6,0.2
		c-0.1,0.1-0.1,0.1-0.1,0.2l-1.5,5.6c-0.3,1.9-2.9,3.9-6.2,3.9h-1.8h-2.8l0.8-2.9h3c0.3,0,0.5-0.1,0.7-0.3c0.1-0.1,0.2-0.2,0.2-0.3
		l1.2-4.9c0.3-1.9,2.5-4.1,5.8-4.1h4.7l-0.6,2.6H47.5z"/>
	<g>
		<line class="st1" x1="12.2" y1="17.3" x2="12.2" y2="17.3"/>
		<path class="st0" d="M3.1,5.7h7.7c0.5,0,1,0.5,1,1l0,0c0,0.5-0.5,1-1,1H5.1C4.9,7.6,4.7,7.8,4.7,8v2.3c0,0.2,0.2,0.3,0.3,0.3h5.7
			c0.5,0,1,0.5,1,1l0,0c0,0.5-0.5,1-1,1H5.1c-0.2,0-0.3,0.2-0.3,0.3v2.9c0,0.2,0.2,0.3,0.3,0.3h5.7c0.5,0,1,0.5,1,1l0,0
			c0,0.5-0.5,1-1,1H3.1c-0.6,0-1-0.5-1-1V6.7C2.1,6.1,2.6,5.7,3.1,5.7z"/>
		<path class="st0" d="M16.9,18.2c-3.6,0-4.1-2.6-4.1-4c0-1.9,1-4.1,4.2-4.1c2.3,0,3.6,1.5,3.6,2.3c0,0.5-0.5,0.9-0.9,0.9
			c-0.4,0-0.6-0.2-0.7-0.3c-0.5-0.7-0.9-1.3-1.9-1.3c-1.6,0-2.1,1.5-2.1,2.5c0,0.5,0.1,1.1,0.4,1.6c0.3,0.5,0.8,0.9,1.7,0.9
			c0.9,0,1.4-0.5,1.7-0.9c0.5-0.7,0.6-1,1.1-1c0.6,0,0.9,0.6,0.9,0.9C20.6,16.6,19.6,18.2,16.9,18.2"/>
		<path class="st0" d="M25.6,18.2c-3.1,0-4.2-2.2-4.2-4c0-2.1,1.3-4,4.1-4c2.9,0,4.1,1.9,4.1,4C29.8,16.5,28.2,18.2,25.6,18.2
			 M25.6,11.7c-1.2,0-2.1,0.9-2.1,2.6s0.8,2.6,2.1,2.6c1.2,0,2.1-0.9,2.1-2.6C27.6,12.6,26.8,11.7,25.6,11.7"/>
	</g>
	<path class="st0" d="M85.7,14.2l2.6-2.6c0.1-0.1,0.1-0.3,0-0.5l-0.6-0.6c-0.5-0.5-1.1-0.5-1.6,0l-2.1,2.1l-2.1-2.1
		c-0.5-0.5-1.1-0.5-1.6,0l-0.6,0.6c-0.1,0.1-0.1,0.3,0,0.5l2.6,2.6l-2.6,2.6c-0.1,0.1-0.1,0.3,0,0.5l0.6,0.6c0.5,0.5,1.1,0.5,1.6,0
		l2.1-2.1l2.1,2.1c0.5,0.5,1.1,0.5,1.6,0l0.6-0.6c0.1-0.1,0.1-0.3,0-0.5L85.7,14.2z"/>
</g>
</svg>
