<?xml version="1.0" encoding="UTF-8"?>
<svg width="82px" height="25px" viewBox="0 0 82 25" version="1.1" xmlns="http://www.w3.org/2000/svg" xmlns:xlink="http://www.w3.org/1999/xlink">
    <!-- Generator: Sketch 46.2 (44496) - http://www.bohemiancoding.com/sketch -->
    <title>Group 8 Copy 4</title>
    <desc>Created with Sketch.</desc>
    <defs></defs>
    <g id="Page-1" stroke="none" stroke-width="1" fill="none" fill-rule="evenodd">
        <g id="My-Applications_zero-data" transform="translate(-1251.000000, -20.000000)" fill="#009530">
            <g id="Group">
                <g id="Group-17">
                    <g id="Group-38">
                        <g id="Group-8-Copy-4" transform="translate(1251.000000, 20.000000)">
                            <g id="LOGO-SE">
                                <path d="M60.014,5 C60.008,5.01 60.004,5.019 60,5.029 C60.004,5.019 60.008,5.01 60.014,5" id="Fill-11"></path>
                                <path d="M9.246,3.494 C7.389,2.668 6.28,2.349 5.18,2.349 C4.023,2.349 3.281,2.764 3.281,3.402 C3.281,5.33 9.828,4.787 9.828,9.25 C9.828,11.711 7.764,13.14 4.896,13.14 C2.646,13.14 1.539,12.558 0.262,11.9 L0.262,9.139 C2.1,10.359 3.228,10.789 4.646,10.789 C5.877,10.789 6.543,10.359 6.543,9.607 C6.543,7.508 0,8.277 0,3.681 C0,1.467 1.914,0 4.896,0 C6.336,0 7.633,0.301 9.246,0.996 L9.246,3.494" id="Fill-17"></path>
                                <path d="M17.955,12.418 C16.863,12.813 15.941,13.002 15.019,13.002 C11.973,13.002 10,11.227 10,8.527 C10,5.873 12.049,4 14.908,4 C15.789,4 16.922,4.229 17.822,4.563 L17.822,6.592 C17.107,6.213 16.279,6.006 15.601,6.006 C13.967,6.006 12.914,6.99 12.914,8.506 C12.914,10.043 13.95,11.057 15.508,11.057 C16.172,11.057 16.75,10.906 17.955,10.457 L17.955,12.418" id="Fill-19"></path>
                                <path d="M41.883,7.527 C41.996,6.322 42.695,5.627 43.768,5.627 C44.821,5.627 45.535,6.341 45.649,7.527 L41.883,7.527 Z M43.578,4 C40.903,4 39,5.887 39,8.548 C39,11.224 40.981,12.998 44.033,12.998 C44.707,12.998 46.342,12.998 47.899,11.845 L47.899,10.15 C46.623,11.058 45.782,11.371 44.692,11.371 C42.973,11.371 41.922,10.482 41.826,8.964 L48.053,8.964 C48.184,5.795 46.104,4 43.578,4 L43.578,4 Z" id="Fill-21"></path>
                                <polygon id="Fill-23" points="49 12.682 51.725 12.682 51.725 4 49 4"></polygon>
                                <path d="M59.464,10.451 C58.899,10.959 58.426,11.164 57.844,11.164 C56.561,11.164 55.75,10.109 55.75,8.531 C55.75,6.797 56.561,5.797 57.936,5.797 C58.426,5.797 59.067,6.023 59.464,6.305 L59.464,10.451 Z M59.464,0 L59.464,4.523 C58.731,4.168 57.996,3.98 57.203,3.98 C54.719,3.98 53,5.816 53,8.471 C53,11.07 54.719,12.982 57.049,12.982 C57.973,12.982 58.688,12.74 59.464,12.119 L59.464,12.82 L62.188,12.82 L62.188,0 L59.464,0 L59.464,0 Z" id="Fill-25"></path>
                                <path d="M65.885,7.527 C65.996,6.322 66.692,5.627 67.762,5.627 C68.819,5.627 69.537,6.341 69.653,7.527 L65.885,7.527 Z M67.576,4 C64.905,4 63,5.887 63,8.548 C63,11.224 64.981,12.998 68.03,12.998 C68.703,12.998 70.342,12.998 71.905,11.845 L71.905,10.15 C70.625,11.058 69.781,11.371 68.688,11.371 C66.977,11.371 65.922,10.482 65.826,8.964 L72.051,8.964 C72.184,5.795 70.096,4 67.576,4 L67.576,4 Z" id="Fill-26"></path>
                                <path d="M76.729,6.652 L76.765,6.652 C77.576,4.845 78.479,4 79.533,4 C80.076,4 80.544,4.209 81.333,4.793 L80.583,7.197 C79.869,6.746 79.398,6.558 78.966,6.558 C77.968,6.558 77.33,7.5 76.729,9.091 L76.729,12.836 L74,12.836 L74,4.158 L76.729,4.158 L76.729,6.652" id="Fill-27"></path>
                                <path d="M52.0433068,0.62861498 C52.2993068,1.30261498 51.8403068,2.24161498 51.0183068,2.72661498 C50.1933068,3.21061498 49.3243068,3.05861498 49.0723068,2.38261498 C48.8133068,1.70661498 49.2723068,0.76361498 50.0943068,0.28461498 C50.9143068,-0.20238502 51.7853068,-0.0493850197 52.0433068,0.62861498" id="Fill-28"></path>
                                <path d="M27.678,7.299 C27.678,4.947 26.084,3.983 24.504,3.983 C23.434,3.983 22.551,4.434 21.76,5.434 L21.723,5.434 L21.723,0 L19,0 L19,12.799 L21.723,12.799 L21.723,7.299 C22.364,6.375 22.908,5.983 23.551,5.983 C24.391,5.983 24.957,6.584 24.957,7.881 L24.957,10.928 C25.87,10.461 26.801,10.17 27.678,10.065 L27.678,7.299" id="Fill-29"></path>
                                <path d="M34.551,4 C33.442,4 32.594,4.412 31.725,5.404 L31.725,4.162 L29,4.162 L29,10.061 C29.946,10.154 31.154,10.588 31.725,11.303 L31.725,7.25 C32.445,6.174 32.951,5.816 33.629,5.816 C34.404,5.816 34.986,6.324 34.986,7.549 L34.986,12.82 L37.711,12.82 L37.711,7.324 C37.711,4.768 35.906,4 34.551,4" id="Fill-30"></path>
                                <polygon id="Fill-31" points="39.225 15.963 36.059 15.963 36.059 18.211 39.114 18.211 39.114 19.178 36.059 19.178 36.059 21.498 39.321 21.498 39.321 22.463 35 22.463 35 15 39.225 15"></polygon>
                                <polygon id="Fill-32" points="42 22.471 42.971 22.471 42.971 15 42 15"></polygon>
                                <path d="M48.313,17.836 C49.002,17.836 49.428,18.309 49.459,19.053 L46.989,19.053 C47.124,18.275 47.573,17.836 48.313,17.836 M46.971,19.701 L50.426,19.701 C50.426,17.881 49.594,17 48.29,17 C46.938,17 46,18 46,19.49 C46,20.854 46.85,22.111 48.377,22.111 C49.208,22.111 49.747,21.926 50.342,21.531 L50.342,20.586 C49.767,20.965 49.208,21.182 48.62,21.182 C47.683,21.182 47.124,20.678 46.971,19.701" id="Fill-33"></path>
                                <path d="M56.842,18.387 C56.285,18.004 55.914,17.895 55.49,17.895 C54.602,17.895 53.988,18.574 53.988,19.573 C53.988,20.586 54.642,21.2 55.651,21.2 C56.067,21.2 56.463,21.092 56.951,20.871 L56.951,21.828 C56.625,21.985 56.002,22.112 55.49,22.112 C54.022,22.112 53,21.104 53,19.657 C53,18.03 53.934,17 55.422,17 C55.99,17 56.373,17.134 56.842,17.34 L56.842,18.387" id="Fill-34"></path>
                                <path d="M60.827,17.018 L62.381,17.018 L62.381,17.893 L60.827,17.893 L60.827,20.418 C60.827,20.997 61.244,21.163 61.523,21.163 C61.875,21.163 62.236,21.039 62.631,20.797 L62.631,21.707 C62.291,21.895 61.765,22.034 61.445,22.034 C60.389,22.034 59.857,21.379 59.857,20.491 L59.857,17.893 L59,17.893 L59,17.782 L60.827,16 L60.827,17.018" id="Fill-35"></path>
                                <path d="M65.967,17.096 L65.967,18.235 L65.988,18.235 C66.485,17.364 66.958,17 67.412,17 C67.807,17 68.18,17.188 68.584,17.573 L68.071,18.424 C67.774,18.135 67.391,17.93 67.162,17.93 C66.494,17.93 65.967,18.61 65.967,19.453 L65.967,22.02 L65,22.02 L65,17.096 L65.967,17.096" id="Fill-36"></path>
                                <path d="M78.85,18.387 C78.291,18.004 77.918,17.895 77.491,17.895 C76.606,17.895 75.997,18.574 75.997,19.573 C75.997,20.586 76.651,21.2 77.657,21.2 C78.073,21.2 78.469,21.092 78.961,20.871 L78.961,21.828 C78.627,21.985 78.006,22.112 77.491,22.112 C76.024,22.112 75,21.104 75,19.657 C75,18.03 75.936,17 77.428,17 C77.998,17 78.375,17.134 78.85,17.34 L78.85,18.387" id="Fill-37"></path>
                                <polygon id="Fill-38" points="71 21.926 71.967 21.926 71.967 17 71 17"></polygon>
                                <path d="M72.0810022,15.2221479 C72.1750022,15.4621479 72.0110022,15.7981479 71.7180022,15.9701479 C71.4250022,16.1401479 71.1140022,16.0851479 71.0240022,15.8471479 C70.9360022,15.6071479 71.0970022,15.2731479 71.3920022,15.1011479 C71.6860022,14.9271479 71.9910022,14.9841479 72.0810022,15.2221479" id="Fill-39"></path>
                                <path d="M29.0277687,16.0599449 C28.8557687,16.0599449 28.7837687,16.0869449 28.7137687,16.1649449 C28.6857687,16.1969449 28.6737687,16.2259449 28.6647687,16.2889449 L27.7957687,19.5869449 C27.5907687,20.7439449 26.1707687,21.8979449 24.3187687,21.8979449 L23.3087687,21.8979449 L21.7427687,21.8979449 L22.1917687,20.2049449 L23.8437687,20.2049449 C24.0117687,20.2049449 24.1447687,20.1419449 24.2567687,20.0169449 C24.2957687,19.9699449 24.3477687,19.8939449 24.3557687,19.8179449 L25.0437687,16.9349449 C25.2447687,15.7789449 26.4667687,14.4989449 28.3207687,14.4989449 L30.9577687,14.4989449 L30.6197687,16.0599449 L29.0277687,16.0599449 Z M29.6217687,18.0699449 L29.9147687,17.0029449 L32.5937687,17.0029449 C32.9257687,15.4549449 32.6627687,14.0209449 31.7247687,13.0809449 C29.8237687,11.1829449 25.8477687,11.8299449 22.8847687,14.6639449 C22.4237687,15.1009449 22.0337687,15.5759449 21.6757687,16.0619449 L23.2897687,16.0619449 L22.9147687,17.1319449 L20.9897687,17.1319449 C20.8047687,17.4719449 20.6297687,17.8039449 20.4987687,18.1439449 L22.7837687,18.1439449 L22.4207687,19.2139449 L20.1727687,19.2139449 C19.7897687,20.8449449 20.0337687,22.3709449 21.0027687,23.3389449 C22.8797687,25.2139449 26.8397687,24.5559449 29.7987687,21.7219449 C30.3187687,21.2299449 30.7467687,20.6989449 31.1327687,20.1519449 L29.0627687,20.1519449 L29.3797687,19.0849449 L31.7987687,19.0849449 C31.9787687,18.7439449 32.1407687,18.4099449 32.2677687,18.0699449 L29.6217687,18.0699449 L29.6217687,18.0699449 Z" id="Fill-40"></path>
                            </g>
                        </g>
                    </g>
                </g>
            </g>
        </g>
    </g>
</svg>